<?xml version="1.0" encoding="UTF-8"?>
<svg width="491px" height="131px" viewBox="0 0 491 131" version="1.1" xmlns="http://www.w3.org/2000/svg" xmlns:xlink="http://www.w3.org/1999/xlink">
    <!-- Generator: Sketch 52.5 (67469) - http://www.bohemiancoding.com/sketch -->
    <title>logo-purple</title>
    <desc>Created with Sketch.</desc>
    <g id="Page-1" stroke="none" stroke-width="1" fill="none" fill-rule="evenodd">
        <g id="logo-purple" fill="#42218A" fill-rule="nonzero">
            <path d="M407.568148,121.48533 L407.568148,8.46133312 C407.568148,4.35066656 410.906815,1.01733331 415.025481,1.01733331 C419.144148,1.01733331 422.482814,4.35066656 422.482814,8.46133312 L422.482814,53.0186653 C422.482814,54.4159986 423.618814,55.5493319 425.020148,55.5493319 L472.782813,55.5493319 C474.182813,55.5493319 475.318813,54.4159986 475.318813,53.0186653 L475.318813,8.46133312 C475.318813,4.35066656 478.65748,1.01733331 482.776146,1.01733331 L482.782813,1.01733331 C486.901479,1.01733331 490.240146,4.35066656 490.240146,8.46133312 L490.240146,121.47333 C490.240146,125.582664 486.901479,128.914663 482.782813,128.914663 L482.776146,128.914663 C478.65748,128.914663 475.318813,125.582664 475.318813,121.47333 L475.318813,72.7786648 C475.318813,71.3799982 474.182813,70.2466649 472.78148,70.2466649 L425.018814,70.2693316 C423.617481,70.2706649 422.482814,71.4039982 422.482814,72.8013315 L422.482814,121.48533 C422.482814,125.590664 419.152148,128.92133 415.038815,128.926663 C415.033481,128.926663 415.029481,128.926663 415.025481,128.926663 C410.908148,128.927997 407.568148,125.594664 407.568148,121.48533 Z M322.773484,129.92933 C317.382817,129.42533 312.270817,127.07333 307.857484,123.899997 C299.226817,117.695997 295.122818,107.533331 295.412151,97.0946642 C295.668151,87.8933311 299.637484,79.9946647 307.036151,74.4759981 C316.110817,67.7053316 327.285483,64.890665 337.822817,61.2906651 C345.46415,58.6786652 355.169483,55.3159986 358.600149,47.2493322 C361.925483,39.431999 360.606816,28.3239993 355.058816,21.8679995 C351.898816,18.1893329 346.889483,15.2226663 343.22415,14.953333 C341.337483,14.8159996 338.11615,14.653333 336.225483,14.653333 C329.18015,14.653333 318.529484,14.7679996 311.48415,14.7679996 C308.101484,14.7679996 304.977484,13.9146663 303.418817,10.5559997 C301.125484,5.61333319 304.924151,0.297333326 310.162817,0.139999997 C316.197484,-0.0386666657 324.04815,0.026666666 330.08415,0.026666666 C333.126817,0.026666666 337.990817,-0.0333333325 341.03215,0.026666666 C345.22015,0.109333331 347.99615,0.95333331 351.28015,2.17333328 C360.980149,5.77999986 368.717482,13.2239997 372.366816,22.9279994 C375.897482,32.3173325 376.108149,43.9746656 372.149482,53.281332 C368.573482,61.6893318 361.201483,67.194665 353.129483,70.9773316 C348.19615,73.2893315 343.02015,75.0626648 337.81615,76.6533314 C329.190817,79.299998 331.209483,78.6853314 335.24415,77.4506647 C330.289483,79.0053314 325.329483,80.7093313 320.72015,83.0866646 C317.58815,84.7053312 314.446817,86.7413312 312.493484,89.7519978 C308.688151,95.6146643 309.758817,105.067997 314.342817,110.179997 C316.898817,113.031997 320.697484,114.650664 324.518817,115.243997 C327.21215,115.659997 330.642817,115.72533 333.342817,115.72533 C339.582816,115.72533 347.345483,115.51333 353.688149,115.583997 C359.010816,115.642664 362.904149,121.014664 360.441483,126.035997 C358.724149,129.53733 355.349483,130.159997 351.877483,130.159997 C348.170816,130.159997 341.86815,130.235997 335.92015,130.235997 C330.50415,130.235997 325.382817,130.17333 322.773484,129.92933 Z M230.644153,129.59733 C230.600153,129.59733 230.553486,129.59733 230.508153,129.595997 C227.465486,129.54933 224.632153,127.642663 223.564153,124.603997 L204.93082,71.5586649 L198.352153,52.829332 L183.517487,10.6026664 C182.149487,6.70533317 184.196154,2.43599994 188.093487,1.06533331 L188.09882,1.06266664 C191.996153,-0.306666659 196.26282,1.74266662 197.632153,5.63866653 L229.124153,95.289331 C229.656153,96.8026642 231.797486,96.8026642 232.328152,95.289331 L263.821485,5.63866653 C265.190818,1.74266662 269.457485,-0.306666659 273.354818,1.06266664 L273.360151,1.06533331 C277.257485,2.43599994 279.304151,6.70533317 277.936151,10.6026664 L263.101485,52.829332 L256.522819,71.5586649 L237.889486,124.603997 C236.821486,127.642663 233.988152,129.54933 230.945486,129.595997 C230.898819,129.59733 230.853486,129.59733 230.808153,129.59733 C230.780153,129.59733 230.753486,129.59733 230.726819,129.59733 C230.698819,129.59733 230.672153,129.59733 230.644153,129.59733 Z M106.362822,128.914663 C102.244156,128.914663 98.9054891,125.582664 98.9054891,121.47333 L98.9054891,121.41733 C98.9054891,117.306664 102.244156,113.97333 106.362822,113.97333 L128.637488,113.97333 C130.136155,113.97333 131.349488,112.762664 131.349488,111.269331 L131.349488,8.46133312 C131.349488,4.35066656 134.686822,1.01733331 138.805488,1.01733331 C142.924155,1.01733331 146.264155,4.35066656 146.264155,8.46133312 L146.264155,111.269331 C146.264155,112.762664 147.476155,113.97333 148.973488,113.97333 L171.186821,113.97333 C175.304154,113.97333 178.64282,117.306664 178.64282,121.41733 L178.64282,121.47333 C178.64282,125.582664 175.304154,128.914663 171.186821,128.914663 L106.362822,128.914663 Z M9.82415804,14.7706663 C5.8468248,14.7706663 2.62282489,11.553333 2.62282489,7.58133314 C2.62282489,3.61199991 5.8468248,0.393333324 9.82415804,0.393333324 L25.045491,0.393333324 C29.0241576,0.393333324 32.2481575,3.61199991 32.2481575,7.58133314 C32.2481575,11.553333 29.0241576,14.7706663 25.045491,14.7706663 L9.82415804,14.7706663 Z M54.3708236,128.85733 C50.388157,128.85733 47.1588238,125.635997 47.1588238,121.659997 C47.1588238,117.683997 50.388157,114.46133 54.3708236,114.46133 L69.6134899,114.46133 C73.5961564,114.46133 76.8254897,117.683997 76.8254897,121.659997 C76.8254897,125.635997 73.5961564,128.85733 69.6134899,128.85733 L54.3708236,128.85733 Z M31.0228242,128.810663 L27.1268243,128.559997 C26.369491,128.510663 24.5041577,128.338663 23.7601577,128.190663 C22.5561577,127.94933 20.7414911,127.550663 19.6548245,127.14533 C13.2988246,124.770664 7.85882475,120.246664 4.37349151,114.383997 C-2.03850833,103.605331 -1.56517501,87.7039978 6.88949145,78.1013314 C16.4268245,67.2679983 32.2974908,64.9279984 45.4601571,61.2973318 C51.360157,59.6706652 57.8308235,57.7839986 62.5881567,53.7439987 C66.2108233,50.6679987 67.9228233,46.4199988 68.5241566,41.7946656 C69.2321566,36.3466658 68.9161566,30.4933326 66.3628233,25.530666 C64.8961567,22.6799994 62.6988234,20.2773328 60.0241568,18.5119995 C58.9174901,17.7813329 57.8254902,17.0813329 56.6428235,16.5213329 C55.2134902,16.0666663 54.6454903,15.6319996 50.7948237,15.2266663 C50.5414904,15.1999996 49.476157,15.1426663 49.1681571,15.1226663 L46.2241571,14.933333 C42.2561572,14.677333 39.2454906,11.2586664 39.5014906,7.29599982 C39.7574906,3.33466658 43.1828239,0.330666658 47.1521571,0.585333319 L52.1388236,0.906666644 C58.5414902,1.31866663 69.5014899,4.71333322 75.5601564,11.593333 C84.6654895,21.9346661 85.6894895,38.3613324 81.5121562,51.1839987 C77.4801563,63.5626651 66.5348233,69.9986649 54.7388236,73.8119982 C51.176157,74.9639981 47.5654904,75.9799981 43.9068239,76.7799981 C31.8321575,79.4213313 29.1201576,80.1786647 22.7588244,83.9599979 C18.9414911,86.2293312 16.2401579,89.4759978 15.3948246,93.8866643 C14.4494913,98.8253309 15.0534912,104.451997 18.1561578,108.547997 C18.6481578,109.199997 19.1961578,109.799997 19.7854911,110.349331 C21.3694911,111.825331 24.3601577,113.094664 26.629491,113.750664 C28.0961576,114.174664 32.6041575,114.47333 32.6041575,114.47333 C37.0601574,114.759997 40.2801573,119.119997 38.8521573,123.682664 C37.870824,126.823997 34.8108241,128.826663 31.5388242,128.826663 C31.3668242,128.826663 31.1948242,128.82133 31.0228242,128.810663 Z" id="path32" transform="translate(245.120073, 65.117998) scale(-1, 1) rotate(-180.000000) translate(-245.120073, -65.117998) "></path>
        </g>
    </g>
</svg>